Hidden.3D.2011.R5.2D.XVID.AC3.HQ.Hive-CM8


Thx Hive


CM8 Doing It Right The First Time


Source: Russian DVD-9
Zataivshiesya.3D.2011.DVD9
had English 5.1 Audio already on it


Encode:
added sharpness,and added some brightness in the second half of the movie which was mostly dark

Video: 720x384 @bitrate 1800 2pass
Audio: English AC3 5.1 @448
Sample: yes included

 
http://www.imdb.com/title/tt1664664/


General
Complete name : Hidden.3D.2011.R5.2D.XVID.AC3.HQ.Hive-CM8.avi
Format : AVI
Format/Info : Audio Video Interleave
File size : 1.23 GiB
Duration : 1h 18mn
Overall bit rate : 2 249 Kbps
Writing application : Nandub v1.0rc2
Writing library : Nandub build 1853/release

Video
ID : 0
Format : MPEG-4 Visual
Format profile : Advanced Simple@L5
Format settings, BVOP : 2
Format settings, QPel : Yes
Format settings, GMC : No warppoints
Format settings, Matrix : Default (H.263)
Muxing mode : Packed bitstream
Codec ID : XVID
Codec ID/Hint : XviD
Duration : 1h 18mn
Bit rate : 1 791 Kbps
Width : 720 pixels
Height : 384 pixels
Display aspect ratio : 1.875
Frame rate : 25.000 fps
Color space : YUV
Chroma subsampling : 4:2:0
Bit depth : 8 bits
Scan type : Progressive
Compression mode : Lossy
Bits/(Pixel*Frame) : 0.259
Stream size : 1 000 MiB (80%)
Writing library : XviD 1.2.1 (UTC 2008-12-04)

Audio
ID : 1
Format : AC-3
Format/Info : Audio Coding 3
Mode extension : CM (complete main)
Codec ID : 2000
Duration : 1h 18mn
Bit rate mode : Constant
Bit rate : 448 Kbps
Channel(s) : 6 channels
Channel positions : Front: L C R, Side: L R, LFE
Sampling rate : 48.0 KHz
Bit depth : 16 bits
Compression mode : Lossy
Stream size : 250 MiB (20%)
Alignment : Split accross interleaves
Interleave, duration : 40 ms (1.00 video frame)
Interleave, preload duration : 500 ms



Sean Clement ... Brian Karter
Simonetta Solder ... Haley Gable
Jordan Hayes ... Vicky
Jason Blicker ... Simon
Bjanka Murgel ... Kimberly
Devon Bostick ... Lucas


When Brian Karter’s mother dies; he is surprised to learn that he has inherited The Sanctuary, home to her controversial experimental addiction treatment center. During a tour of the decrepit building with his friends and a mysterious associate of his mother, it becomes clear that something sinister lies beneath the surface. Despite their misgivings, the group follows a secret passageway underground and comes to a terrible realization: Brian’s mother built a revolutionary machine that cured people of their addictions but, as a side effect, caused those addictions to materialize in the form of mutant children hungry for human flesh, now living in the bowels of the abandoned building. With the mutant children hunting the group as prey, Brian and his friends fight to stay alive against the inconceivable and soon realize that some things are better left hidden.